<?xml version="1.0" encoding="UTF-8"?>
<!DOCTYPE svg PUBLIC "-//W3C//DTD SVG 1.1//EN" "http://www.w3.org/Graphics/SVG/1.1/DTD/svg11.dtd">
<svg version="1.2" width="110.35mm" height="97.21mm" viewBox="0 0 11035 9721" preserveAspectRatio="xMidYMid" fill-rule="evenodd" stroke-width="28.222" stroke-linejoin="round" xmlns="http://www.w3.org/2000/svg" xmlns:ooo="http://xml.openoffice.org/svg/export" xmlns:xlink="http://www.w3.org/1999/xlink" xmlns:presentation="http://sun.com/xmlns/staroffice/presentation" xmlns:smil="http://www.w3.org/2001/SMIL20/" xmlns:anim="urn:oasis:names:tc:opendocument:xmlns:animation:1.0" xml:space="preserve">
 <defs class="ClipPathGroup">
  <clipPath id="presentation_clip_path" clipPathUnits="userSpaceOnUse">
   <rect x="0" y="0" width="11035" height="9721"/>
  </clipPath>
  <clipPath id="presentation_clip_path_shrink" clipPathUnits="userSpaceOnUse">
   <rect x="11" y="9" width="11013" height="9702"/>
  </clipPath>
 </defs>
 <defs class="TextShapeIndex">
  <g ooo:slide="id1" ooo:id-list="id3 id4 id5 id6 id7 id8 id9 id10"/>
 </defs>
 <defs class="EmbeddedBulletChars">
  <g id="bullet-char-template(57356)" transform="scale(0.00048828125,-0.00048828125)">
   <path d="M 580,1141 L 1163,571 580,0 -4,571 580,1141 Z"/>
  </g>
  <g id="bullet-char-template(57354)" transform="scale(0.00048828125,-0.00048828125)">
   <path d="M 8,1128 L 1137,1128 1137,0 8,0 8,1128 Z"/>
  </g>
  <g id="bullet-char-template(10146)" transform="scale(0.00048828125,-0.00048828125)">
   <path d="M 174,0 L 602,739 174,1481 1456,739 174,0 Z M 1358,739 L 309,1346 659,739 1358,739 Z"/>
  </g>
  <g id="bullet-char-template(10132)" transform="scale(0.00048828125,-0.00048828125)">
   <path d="M 2015,739 L 1276,0 717,0 1260,543 174,543 174,936 1260,936 717,1481 1274,1481 2015,739 Z"/>
  </g>
  <g id="bullet-char-template(10007)" transform="scale(0.00048828125,-0.00048828125)">
   <path d="M 0,-2 C -7,14 -16,27 -25,37 L 356,567 C 262,823 215,952 215,954 215,979 228,992 255,992 264,992 276,990 289,987 310,991 331,999 354,1012 L 381,999 492,748 772,1049 836,1024 860,1049 C 881,1039 901,1025 922,1006 886,937 835,863 770,784 769,783 710,716 594,584 L 774,223 C 774,196 753,168 711,139 L 727,119 C 717,90 699,76 672,76 641,76 570,178 457,381 L 164,-76 C 142,-110 111,-127 72,-127 30,-127 9,-110 8,-76 1,-67 -2,-52 -2,-32 -2,-23 -1,-13 0,-2 Z"/>
  </g>
  <g id="bullet-char-template(10004)" transform="scale(0.00048828125,-0.00048828125)">
   <path d="M 285,-33 C 182,-33 111,30 74,156 52,228 41,333 41,471 41,549 55,616 82,672 116,743 169,778 240,778 293,778 328,747 346,684 L 369,508 C 377,444 397,411 428,410 L 1163,1116 C 1174,1127 1196,1133 1229,1133 1271,1133 1292,1118 1292,1087 L 1292,965 C 1292,929 1282,901 1262,881 L 442,47 C 390,-6 338,-33 285,-33 Z"/>
  </g>
  <g id="bullet-char-template(9679)" transform="scale(0.00048828125,-0.00048828125)">
   <path d="M 813,0 C 632,0 489,54 383,161 276,268 223,411 223,592 223,773 276,916 383,1023 489,1130 632,1184 813,1184 992,1184 1136,1130 1245,1023 1353,916 1407,772 1407,592 1407,412 1353,268 1245,161 1136,54 992,0 813,0 Z"/>
  </g>
  <g id="bullet-char-template(8226)" transform="scale(0.00048828125,-0.00048828125)">
   <path d="M 346,457 C 273,457 209,483 155,535 101,586 74,649 74,723 74,796 101,859 155,911 209,963 273,989 346,989 419,989 480,963 531,910 582,859 608,796 608,723 608,648 583,586 532,535 482,483 420,457 346,457 Z"/>
  </g>
  <g id="bullet-char-template(8211)" transform="scale(0.00048828125,-0.00048828125)">
   <path d="M -4,459 L 1135,459 1135,606 -4,606 -4,459 Z"/>
  </g>
  <g id="bullet-char-template(61548)" transform="scale(0.00048828125,-0.00048828125)">
   <path d="M 173,740 C 173,903 231,1043 346,1159 462,1274 601,1332 765,1332 928,1332 1067,1274 1183,1159 1299,1043 1357,903 1357,740 1357,577 1299,437 1183,322 1067,206 928,148 765,148 601,148 462,206 346,322 231,437 173,577 173,740 Z"/>
  </g>
 </defs>
 <defs class="TextEmbeddedBitmaps"/>
 <g class="SlideGroup">
  <g>
   <g id="container-id1">
    <g id="id1" class="Slide" clip-path="url(#presentation_clip_path)">
     <g class="Page">
      <g class="com.sun.star.drawing.PolyPolygonShape">
       <g id="id3">
        <rect class="BoundingBox" stroke="none" fill="none" x="0" y="0" width="11036" height="9722"/>
       </g>
      </g>
      <g class="com.sun.star.drawing.PolyPolygonShape">
       <g id="id4">
        <rect class="BoundingBox" stroke="none" fill="none" x="0" y="0" width="11034" height="9721"/>
        <g>
         <defs>
          <linearGradient id="gradient1" x1="5516" y1="0" x2="5516" y2="9720" gradientUnits="userSpaceOnUse">
           <stop offset="0" style="stop-color:rgb(246,162,59)"/>
           <stop offset="1" style="stop-color:rgb(255,130,31)"/>
          </linearGradient>
         </defs>
         <path style="fill:url(#gradient1)" d="M 9589,3682 L 9524,3683 9460,3688 9398,3695 9336,3705 9276,3718 9216,3733 9158,3749 9100,3769 9088,3717 9071,3667 9050,3618 9025,3572 8996,3528 8964,3487 8929,3448 8890,3413 8849,3382 8804,3353 8756,3328 8708,3308 8656,3292 8603,3279 8548,3272 8491,3269 8428,3273 8365,3282 8305,3298 8248,3319 8194,3345 8143,3377 8095,3412 8051,3453 8013,3497 7976,3544 7946,3595 7920,3649 7900,3705 7885,3764 7876,3825 7873,3888 7874,3924 7876,3960 7881,3997 7889,4033 7899,4068 7910,4103 7923,4137 7938,4170 7955,4200 7974,4228 7994,4253 8015,4278 8059,4324 8080,4349 8101,4377 8116,4398 8131,4420 8145,4445 8156,4472 8168,4498 8176,4527 8183,4554 8188,4583 8195,4648 8198,4680 8199,4712 8198,4743 8194,4774 8191,4789 8188,4804 8183,4818 8178,4833 8161,4867 8143,4897 8121,4923 8096,4948 8070,4969 8043,4987 8011,5003 7980,5016 7948,5024 7914,5032 7880,5037 7846,5038 7811,5037 7776,5033 7743,5027 7710,5018 7676,5007 7644,4992 7613,4973 7584,4952 7558,4926 7533,4897 7511,4866 7493,4828 7478,4788 7465,4744 7455,4695 7450,4643 7449,4587 7453,4524 7459,4459 7471,4388 7486,4310 7498,4232 7515,4072 7523,3909 7525,3747 7504,3364 7445,2993 7351,2635 7224,2291 7065,1964 6875,1655 6659,1366 6415,1100 6148,858 5859,641 5549,454 5220,295 4875,169 4514,76 4141,20 3758,0 3374,20 3001,76 2641,169 2295,295 1968,454 1658,643 1368,859 1101,1101 859,1368 643,1658 454,1968 295,2295 169,2642 76,3002 20,3374 0,3758 20,4142 76,4514 169,4874 295,5221 454,5548 643,5858 859,6148 1101,6414 1368,6657 1658,6873 1968,7062 2295,7221 2641,7347 3001,7440 3374,7496 3758,7516 3864,7516 3968,7513 4070,7506 4121,7501 4170,7493 4208,7490 4245,7490 4283,7493 4320,7501 4358,7512 4394,7526 4429,7542 4463,7561 4494,7583 4524,7607 4550,7632 4573,7658 4593,7687 4609,7716 4620,7746 4626,7776 4665,7982 4724,8181 4800,8371 4895,8552 5005,8722 5131,8882 5273,9031 5425,9167 5590,9291 5766,9400 5951,9495 6145,9573 6346,9636 6554,9682 6766,9710 6983,9720 7228,9707 7466,9671 7696,9612 7916,9531 8126,9430 8324,9310 8509,9171 8680,9017 8834,8846 8973,8661 9093,8463 9194,8253 9275,8033 9334,7803 9370,7565 9383,7320 9380,7198 9373,7077 9359,6958 9350,6899 9339,6842 9334,6817 9333,6793 9333,6768 9336,6744 9343,6722 9353,6699 9364,6678 9379,6658 9395,6639 9415,6622 9438,6607 9463,6594 9490,6584 9521,6577 9554,6572 9589,6571 9735,6563 9879,6542 10016,6506 10149,6458 10275,6397 10394,6326 10505,6242 10608,6149 10701,6047 10785,5936 10858,5817 10919,5691 10968,5557 11003,5418 11025,5274 11033,5126 11024,4979 11000,4835 10964,4698 10914,4565 10853,4439 10780,4320 10698,4209 10604,4107 10501,4013 10391,3929 10273,3857 10148,3795 10015,3747 9878,3712 9735,3689 9589,3682 Z"/>
        </g>
       </g>
      </g>
      <g class="com.sun.star.drawing.PolyPolygonShape">
       <g id="id5">
        <rect class="BoundingBox" stroke="none" fill="none" x="648" y="2221" width="4811" height="3704"/>
       </g>
      </g>
      <g class="com.sun.star.drawing.PolyPolygonShape">
       <g id="id6">
        <rect class="BoundingBox" stroke="none" fill="none" x="650" y="2224" width="4806" height="3699"/>
        <g>
         <defs>
          <linearGradient id="gradient2" x1="3052" y1="2224" x2="3052" y2="5922" gradientUnits="userSpaceOnUse">
           <stop offset="0" style="stop-color:rgb(68,39,13)"/>
           <stop offset="1" style="stop-color:rgb(31,16,2)"/>
          </linearGradient>
         </defs>
         <path style="fill:url(#gradient2)" d="M 958,2609 L 1418,2480 1932,2377 2479,2300 3042,2249 3603,2224 4143,2225 4643,2253 5086,2304 5126,2313 5165,2324 5201,2338 5235,2355 5267,2377 5298,2399 5326,2425 5352,2453 5375,2483 5396,2515 5413,2549 5427,2584 5440,2622 5448,2660 5453,2699 5455,2739 5445,2969 5411,3213 5357,3469 5282,3732 5186,3998 5068,4262 4930,4522 4771,4771 4592,5007 4392,5225 4173,5421 3934,5591 3676,5730 3397,5835 3099,5900 2783,5922 2643,5916 2488,5896 2318,5860 2140,5805 1958,5731 1773,5634 1590,5514 1413,5366 1245,5190 1091,4985 955,4746 839,4475 746,4166 683,3818 650,3431 654,2999 658,2968 663,2935 671,2904 681,2874 694,2845 709,2817 726,2790 745,2764 765,2739 788,2715 813,2694 839,2674 866,2655 895,2638 926,2623 958,2609 Z"/>
        </g>
       </g>
      </g>
      <g class="com.sun.star.drawing.PolyPolygonShape">
       <g id="id7">
        <rect class="BoundingBox" stroke="none" fill="none" x="3915" y="1106" width="767" height="637"/>
       </g>
      </g>
      <g class="com.sun.star.drawing.PolyPolygonShape">
       <g id="id8">
        <rect class="BoundingBox" stroke="none" fill="none" x="3916" y="1108" width="763" height="633"/>
        <g>
         <defs>
          <linearGradient id="gradient3" x1="4297" y1="1108" x2="4297" y2="1740" gradientUnits="userSpaceOnUse">
           <stop offset="0" style="stop-color:rgb(68,39,13)"/>
           <stop offset="1" style="stop-color:rgb(31,16,2)"/>
          </linearGradient>
         </defs>
         <path style="fill:url(#gradient3)" d="M 4497,1228 L 4519,1248 4542,1270 4563,1293 4584,1318 4604,1345 4623,1372 4639,1401 4653,1430 4664,1460 4673,1490 4678,1520 4678,1550 4676,1580 4668,1609 4663,1624 4656,1638 4638,1664 4628,1676 4618,1686 4607,1696 4594,1705 4568,1719 4539,1730 4508,1736 4475,1740 4440,1740 4404,1736 4367,1730 4329,1721 4290,1710 4251,1696 4214,1680 4176,1663 4139,1643 4104,1620 4080,1603 4056,1583 4034,1560 4011,1535 3991,1507 3972,1480 3956,1450 3942,1420 3931,1388 3922,1357 3917,1327 3916,1296 3919,1267 3925,1238 3930,1224 3936,1211 3944,1197 3952,1184 3972,1166 3996,1149 4022,1136 4051,1124 4082,1116 4116,1111 4151,1108 4188,1109 4225,1112 4264,1119 4303,1129 4343,1142 4382,1158 4420,1178 4459,1202 4497,1228 Z"/>
        </g>
       </g>
      </g>
      <g class="com.sun.star.drawing.PolyPolygonShape">
       <g id="id9">
        <rect class="BoundingBox" stroke="none" fill="none" x="984" y="1490" width="581" height="598"/>
       </g>
      </g>
      <g class="com.sun.star.drawing.PolyPolygonShape">
       <g id="id10">
        <rect class="BoundingBox" stroke="none" fill="none" x="985" y="1491" width="577" height="596"/>
        <g>
         <defs>
          <linearGradient id="gradient4" x1="1273" y1="1491" x2="1273" y2="2086" gradientUnits="userSpaceOnUse">
           <stop offset="0" style="stop-color:rgb(68,39,13)"/>
           <stop offset="1" style="stop-color:rgb(31,16,2)"/>
          </linearGradient>
         </defs>
         <path style="fill:url(#gradient4)" d="M 1425,1923 L 1406,1943 1383,1963 1359,1982 1334,2001 1308,2017 1281,2033 1253,2047 1224,2059 1197,2069 1169,2077 1143,2082 1116,2086 1093,2084 1070,2082 1060,2078 1050,2074 1041,2071 1033,2064 1024,2057 1016,2049 1009,2041 1004,2031 998,2022 994,2011 990,2001 988,1989 985,1966 986,1941 989,1914 995,1885 1004,1858 1016,1828 1030,1799 1046,1769 1084,1709 1130,1650 1155,1625 1182,1601 1209,1579 1235,1560 1264,1542 1292,1527 1319,1515 1347,1505 1373,1497 1399,1492 1425,1491 1447,1492 1470,1497 1480,1500 1490,1505 1498,1510 1507,1516 1515,1522 1522,1530 1533,1545 1543,1561 1551,1579 1557,1597 1560,1617 1561,1639 1560,1661 1556,1685 1550,1711 1540,1738 1528,1765 1513,1794 1496,1824 1476,1857 1425,1923 Z"/>
        </g>
       </g>
      </g>
     </g>
    </g>
   </g>
  </g>
 </g>
</svg>